<svg xmlns="http://www.w3.org/2000/svg" viewBox="0 0 340.91 387.84"><defs><style>.cls-1{fill:#fff;}</style></defs><g id="Layer_2" data-name="Layer 2"><g id="Layer_1-2" data-name="Layer 1"><path class="cls-1" d="M211.66,355.36c0-16.91.09-32.72-.15-48.53,0-1.36-2-3.3-3.55-4-24.27-10.56-48.61-20.94-72.92-31.39-12.54-5.39-25-10.93-37.6-16.18-3-1.24-4-3-4-6,.06-28.33,0-56.65.12-85a14,14,0,0,1,1.87-6.57Q138.89,81.43,182.53,5.25c.8-1.4,1.82-2.66,3.61-5.25a51,51,0,0,1,.67,5.29q0,104.73.1,209.46c0,4-1.34,5.06-5.21,5-11.36-.11-11.38,0-11.38-11.25q0-68.75,0-137.48V63.66l-1-.23L150.51,96.38c-12.48,21.78-25,43.52-37.38,65.38a17.15,17.15,0,0,0-2.22,8c-.17,22.67,0,45.33-.18,68,0,3.38,1.11,4.91,4.17,6.21q54.91,23.28,109.67,47a6.89,6.89,0,0,1,3.45,5c.22,26.83.15,53.65.12,80.48a45.47,45.47,0,0,1-.65,4.93l-116.68-51v9.79c0,14.16-.14,28.33.06,42.49.06,4-1.27,5.11-5.17,5.1-33.66-.11-67.32,0-101,0-1.3,0-2.61-.2-4.63-.37,0-4.64-.31-9.13.23-13.51.12-1,3.1-2.44,4.77-2.45,23.49-.16,47-.11,70.48-.1,4.5,0,9-.22,13.5.05,3.56.22,4.55-1.1,4.53-4.54-.15-18.67-.09-37.33-.1-56v-6.92Z"/><path class="cls-1" d="M236.4,332.49c0-16-.25-32,.14-48,.13-5.26-1.81-7.63-6.41-9.56-28.52-12-56.91-24.26-85.42-36.26-3.73-1.57-5.23-3.46-5.2-7.73q.31-44.47,0-89c0-4.27,1-5.83,5.52-5.75,11.75.22,11.77,0,11.76,11.94,0,23.83.11,47.65-.14,71.47,0,4.11,1.5,5.77,5,7.24,29.11,12.32,58.12,24.86,87.23,37.17,3.61,1.52,4.89,3.45,4.87,7.42-.18,31.16,0,62.31-.21,93.47,0,4.77.83,6.57,6.22,6.5,25-.34,50,0,75-.24,4.75,0,6.36,1.22,6.18,6.14-.38,10.38-.12,10.39-10.27,10.39-29.66,0-59.31-.09-89,.09-4.22,0-5.39-1.27-5.34-5.37C236.51,365.81,236.4,349.15,236.4,332.49Z"/><path class="cls-1" d="M193.67,334.43c-3.81-1.64-7.63-3.25-11.42-4.92l-81.16-35.79C94,290.6,94,290.61,97,283.23c3.54-8.75,3.59-8.86,12.3-5,29.32,12.93,58.57,26,87.93,38.85,4.3,1.88,5.15,4,2.85,7.95a64,64,0,0,0-3.35,7.22c-.53,1.24-.86,2.56-1.28,3.84Z"/></g></g></svg>